<?xml version="1.0" encoding="utf-8"?>
<!-- Generator: Adobe Illustrator 28.0.0, SVG Export Plug-In . SVG Version: 6.00 Build 0)  -->
<svg version="1.1" id="Layer_1" xmlns="http://www.w3.org/2000/svg" xmlns:xlink="http://www.w3.org/1999/xlink" x="0px" y="0px" viewBox="0 0 712 712" style="enable-background:new 0 0 712 712;" xml:space="preserve">
<style type="text/css">
	.st0{fill:#fff;}
</style>
<path class="st0" d="M626.4,413.7c-7.2-30.1,15-78.3-5.9-112.4c-17.1-28-70.9-32.6-96.2-60.8c-22.2-24.7-20.5-76.8-46.9-101.1
	c-30-19.6-80.1-5.2-109.5-20.6c-33.6-17.6-51.3-68.6-82.6-78.4c-38.2-11.9-79.5,21.4-110.4,21.8c-42.5,0.5-92.7-18.8-111.7,7.1
	c-18.8,25.9,54.7,26.5,95.7,136.3c29.5,79.3,26,134.1,3.9,229.1C147.5,500.1,99.1,589.8,60,656.1c-7.1,12.1,8.7,24.4,18.7,14.6
	c54.6-54.1,129.8-123,189.5-153.8c86.7-44.8,139-61.6,223-52.4c116.5,12.8,135.1,83.9,155.6,59.3C667.4,499,636.3,455.1,626.4,413.7
	z"/>
</svg>