<?xml version="1.0" encoding="utf-8"?>
<!-- Generator: Adobe Illustrator 28.0.0, SVG Export Plug-In . SVG Version: 6.00 Build 0)  -->
<svg version="1.1" id="Layer_1" xmlns="http://www.w3.org/2000/svg" xmlns:xlink="http://www.w3.org/1999/xlink" x="0px" y="0px"
	 viewBox="0 0 712 712" style="enable-background:new 0 0 712 712;" xml:space="preserve">
<style type="text/css">
	.st0{fill:none;stroke:#EB008B;stroke-width:17;stroke-linecap:round;stroke-linejoin:round;stroke-miterlimit:10;}
	.st1{fill:none;stroke:#00ADEE;stroke-width:17;stroke-linecap:round;stroke-linejoin:round;stroke-miterlimit:10;}
	.st2{fill:none;stroke:#009345;stroke-width:17;stroke-linecap:round;stroke-linejoin:round;stroke-miterlimit:10;}
</style>
<path d="M660.4,712H51.6C23.1,712,0,688.9,0,660.4V51.6C0,23.1,23.1,0,51.6,0h608.7C688.9,0,712,23.1,712,51.6v608.7
	C712,688.9,688.9,712,660.4,712z"/>
<g>
	<path class="st0" d="M642.5,332.1c-6.2-23.3,10.3-61.4-6.6-87.6c-13.9-21.5-55.9-24.2-76.2-45.8c-18.1-19.3-17.3-61.3-39.8-79.3
		c-24.1-15.8-63.8-2.1-87.7-13.3c-26.8-12.6-42.3-51.7-67.1-58.3c-30.2-8-61.3,19.4-85.3,20.7c-33.2,1.8-72.9-11.5-86.6,9.4
		c-13.7,20.9,26.6,30.2,62.2,114.6c25.7,60.8,35.8,87.8,21.8,162.8c-17.1,91.6-100.4,216.8-126.9,272.9c0,0.1,0,0.1,0.1,0.1
		c45.1-42.6,138.5-160.4,220.3-205c66.9-36.5,95.7-35.3,161.5-29.6c91.2,7.9,112.6,43.3,128.2,23.8
		C675.9,397.9,651,364.2,642.5,332.1z"/>
	<path class="st1" d="M624.7,369.5c-6.2-23.3,10.3-61.4-6.6-87.6c-13.9-21.5-55.9-24.2-76.2-45.8c-18.1-19.3-17.3-61.3-39.8-79.3
		c-24.1-15.8-63.8-2.1-87.7-13.3c-26.8-12.6-42.3-51.7-67.1-58.3c-30.2-8-61.3,19.4-85.3,20.7c-33.2,1.8-72.9-11.5-86.6,9.4
		c-13.7,20.9,26.6,30.2,62.2,114.6c25.7,60.8,35.8,87.8,21.8,162.8C242.2,484.3,159,609.5,132.4,665.5c0,0.1,0,0.1,0.1,0.1
		c45.1-42.6,138.5-160.4,220.3-205c66.9-36.5,95.7-35.3,161.5-29.6c91.2,7.9,112.6,43.3,128.2,23.8
		C658.2,435.3,633.2,401.6,624.7,369.5z"/>
	<path class="st2" d="M589,358.1c-6.2-23.3,10.3-61.4-6.6-87.6c-13.9-21.5-55.9-24.2-76.2-45.8c-18.1-19.3-17.3-61.3-39.8-79.3
		c-24.1-15.8-63.8-2.1-87.7-13.3c-26.8-12.6-42.3-51.7-67.1-58.3c-30.2-8-61.3,19.4-85.3,20.7c-33.2,1.8-72.9-11.5-86.6,9.4
		c-13.7,20.9,26.6,30.2,62.2,114.6c25.7,60.8,35.8,87.8,21.8,162.8c-17.1,91.6-100.4,216.8-126.9,272.9c0,0.1,0,0.1,0.1,0.1
		c45.1-42.6,138.5-160.4,220.3-205c66.9-36.5,95.7-35.3,161.5-29.6c91.2,7.9,112.6,43.3,128.2,23.8
		C622.5,423.9,597.5,390.2,589,358.1z"/>
</g>
</svg>
