<?xml version="1.0" encoding="utf-8"?>
<!-- Generator: Adobe Illustrator 28.0.0, SVG Export Plug-In . SVG Version: 6.00 Build 0)  -->
<svg version="1.1" id="Layer_1" xmlns="http://www.w3.org/2000/svg" xmlns:xlink="http://www.w3.org/1999/xlink" x="0px" y="0px"
	 viewBox="0 0 16 16" style="enable-background:new 0 0 16 16;" xml:space="preserve">
<style type="text/css">
	.st0{fill:#231F20;}
</style>
<path class="st0" d="M13.6,9.1c-0.1-0.6,0.3-1.5-0.1-2.1c-0.3-0.5-1.3-0.6-1.8-1.1c-0.4-0.5-0.4-1.4-0.9-1.9
	c-0.6-0.4-1.5-0.1-2.1-0.4c-0.6-0.3-1-1.3-1.6-1.5C6.5,1.8,5.7,2.5,5.1,2.5C4.3,2.5,3.4,2.1,3,2.6C2.6,3.1,4,3.1,4.8,5.2
	c0.6,1.5,0.5,2.5,0.1,4.3c-0.3,1.2-1.2,2.9-1.9,4.2c-0.1,0.2,0.2,0.5,0.4,0.3c1-1,2.4-2.3,3.6-2.9c1.6-0.8,2.6-1.2,4.2-1
	c2.2,0.2,2.5,1.6,2.9,1.1C14.4,10.7,13.8,9.9,13.6,9.1z"/>
</svg>
